<?xml version="1.0" encoding="UTF-8"?>
<!-- Generator: visioncortex VTracer -->
<svg id="svg" version="1.1" xmlns="http://www.w3.org/2000/svg" style="display: block;" viewBox="0 0 225 225"><path d="M0 0 C0.87882339 -0.00426498 1.75764679 -0.00852997 2.6631012 -0.01292419 C3.63497375 -0.01247101 4.60684631 -0.01201782 5.60816956 -0.0115509 C6.62613113 -0.01490952 7.64409271 -0.01826813 8.69290161 -0.02172852 C12.08076681 -0.03127763 15.46858272 -0.03318415 18.85646057 -0.03425598 C21.20762147 -0.03746779 23.55878216 -0.0408318 25.90994263 -0.04434204 C30.85232506 -0.05034458 35.79468998 -0.05218099 40.73707581 -0.05158997 C47.05520183 -0.05148873 53.3732145 -0.06509605 59.69131374 -0.08236217 C64.55479441 -0.09351462 69.41824805 -0.09550811 74.28174019 -0.09498024 C76.60961863 -0.09615719 78.93749785 -0.10056292 81.26536369 -0.10831261 C84.53465908 -0.11816992 87.80371358 -0.11521089 91.07301331 -0.10920715 C92.02666779 -0.11482666 92.98032227 -0.12044617 93.96287537 -0.12623596 C103.05019834 -0.08408091 111.35262395 0.83454276 118.92286682 6.13371277 C124.27453962 11.90788605 124.33359773 16.97418542 124.26271057 24.60636902 C123.7899783 29.51300394 122.4217307 32.66975027 118.92286682 36.13371277 C113.34757312 40.29383345 108.20333859 41.28099936 101.41114807 41.23136902 C100.68292343 41.22995407 99.95469879 41.22853912 99.20440674 41.2270813 C96.88135143 41.22148936 94.55839294 41.20893839 92.23536682 41.19621277 C90.65919634 41.19119672 89.08302435 41.186634 87.5068512 41.18254089 C83.64548584 41.17152257 79.78419274 41.15426351 75.92286682 41.13371277 C81.25514848 49.95208959 86.61376595 58.74602535 92.23536682 67.38371277 C96.65751884 74.17953781 101.05548259 80.99001677 105.42286682 87.82121277 C106.02268372 88.75417175 106.62250061 89.68713074 107.24049377 90.64836121 C110.05095502 95.05124365 112.72188522 99.39374169 114.92286682 104.13371277 C113.2369584 104.61844955 111.54904137 105.09620203 109.86036682 105.57121277 C108.92064026 105.83804871 107.9809137 106.10488464 107.01271057 106.37980652 C84.55955772 111.85826227 60.45550188 106.90902499 40.54786682 95.75871277 C18.03909015 81.85802231 2.13958477 60.91377476 -4.07713318 35.13371277 C-4.90555946 30.85622006 -5.2056189 26.81282929 -5.20994568 22.45793152 C-5.21123474 21.21849792 -5.2125238 19.97906433 -5.21385193 18.70207214 C-5.20998474 17.42138855 -5.20611755 16.14070496 -5.20213318 14.82121277 C-5.20600037 13.52119324 -5.20986755 12.22117371 -5.21385193 10.88175964 C-5.21256287 9.64877136 -5.2112738 8.41578308 -5.20994568 7.14543152 C-5.20881775 6.01580994 -5.20768982 4.88618835 -5.20652771 3.72233582 C-4.99979315 -0.41352567 -3.73808159 0.00815926 0 0 Z " transform="translate(24.077133178710938,96.86628723144531)" style="fill: #B72E32;"/><path d="M0 0 C18.24610818 13.56212404 31.22067628 31.48707028 36.6875 53.625 C36.86192627 54.26228027 37.03635254 54.89956055 37.21606445 55.55615234 C42.96164714 78.16315645 38.42725905 102.85554916 26.82177734 122.7890625 C20.20507124 133.49884077 11.03111074 145.81485792 -0.3125 151.625 C-4.25289114 150.31153629 -4.90342466 148.62675995 -7.140625 145.1640625 C-7.49388855 144.61769135 -7.8471521 144.07132019 -8.21112061 143.50839233 C-8.95483273 142.35268141 -9.69425907 141.1942029 -10.4296875 140.03320312 C-11.55925111 138.2551142 -12.70819948 136.49071438 -13.859375 134.7265625 C-14.57933355 133.60233555 -15.29812404 132.47735952 -16.015625 131.3515625 C-16.67208008 130.32627441 -17.32853516 129.30098633 -18.00488281 128.24462891 C-19.3125 125.625 -19.3125 125.625 -18.3125 122.625 C-16.37890625 121.88671875 -16.37890625 121.88671875 -13.875 121.3125 C-2.78367522 118.22277381 4.12773626 112.34372232 9.93359375 102.515625 C16.00786892 91.03457742 16.35377668 77.56230219 14 64.9375 C13.08852644 62.02078461 12.02822618 59.36910311 10.6875 56.625 C10.26339844 55.74714844 9.83929688 54.86929688 9.40234375 53.96484375 C3.68465682 43.40543865 -4.64356022 37.24823129 -15.96633911 33.82194519 C-27.96392641 30.82566387 -40.01238012 31.14595747 -52.3046875 31.11328125 C-54.70607405 31.0964092 -57.1074519 31.07825562 -59.50881958 31.05888367 C-65.78535239 31.01165198 -72.06184994 30.98166962 -78.33850098 30.95544434 C-84.76089439 30.92550263 -91.18316658 30.87901945 -97.60546875 30.83398438 C-110.1744129 30.74825692 -122.74338661 30.68021353 -135.3125 30.625 C-133.68117711 26.28124082 -131.48032102 22.8785929 -128.625 19.25 C-128.1722168 18.6727417 -127.71943359 18.0954834 -127.25292969 17.50073242 C-96.38727185 -21.38846085 -40.45062181 -26.9670812 0 0 Z " transform="translate(166.3125,36.375)" style="fill: #B83134;"/></svg>